<svg xmlns="http://www.w3.org/2000/svg" width="200" height="200" fill="none" viewBox="0 0 200 200">
<!-- SVG created with Arrow, by QuiverAI (https://quiver.ai) -->
  <path d="m100 4.77c-52.13 0-95.23 42.47-95.23 95.34 0 52.38 43.1 95.12 94.42 95.12h0.76c52.81 0 95.56-43.1 95.56-95.17 0-52.25-42.47-95.29-95.51-95.29zm-0.87 180h-0.34c-46.33 0-84.87-38.77-84.87-84.75 0-46.74 38.26-85.85 84.93-85.85h0.39c47.45 0 86.39 38.71 86.39 85.62s-38.48 84.92-86.5 84.98z" fill="url(#paint0_linear_11_212)"/>
  <path d="m159.3 63.41-12.9-8.5c-1.33-0.9-3-0.96-4.27-0.06l-12.08 7.81-13.12-8.22v-12.73c0-1.45-0.69-2.67-1.91-3.36l-13.24-7.46c-1.33-0.85-2.94-0.85-4.21 0.05l-13.03 7.87c-1.33 0.75-1.79 1.85-1.79 3.24v14.19c0 1.45 0.74 2.72 1.96 3.41l11.79 7.06v12.62l-11.37 6.89-11.73-7.23v-12.2c0-1.45-0.75-2.72-1.97-3.41l-13.75-8.56c-1.22-0.75-2.95-0.75-4.17 0.09l-13.53 8.56c-1.16 0.69-1.74 1.85-1.74 3.18v14.36c0 1.45 0.8 2.84 2.13 3.53l11.85 7v12.68l-12.24 7.23c-1.22 0.69-1.91 2.02-1.91 3.47v14.36c0 1.45 0.75 2.72 2.08 3.41l13.53 8.05c1.22 0.75 2.89 0.75 4.11-0.11l12.24-6.94 13.03 8.11v12.35c0 1.45 0.75 2.72 2.08 3.47l13.14 7.63c1.27 0.8 2.66 0.63 3.88-0.23l13.36-8.21c1.22-0.75 1.62-1.85 1.45-3.3v-14.36c0.17-1.39-0.29-2.61-1.51-3.41l-12.53-7v-12.68l11.96-6.94 11.79 7.29v12.73c0 1.45 0.75 2.72 2.08 3.47l13.91 8.16c1.22 0.75 2.89 0.75 4.11-0.11l12.58-7.81c1.27-0.75 1.79-1.97 1.62-3.53v-14.36c0.06-1.45-0.69-2.84-2.02-3.53l-11.37-7.46v-12.35l11.74-7.11c1.27-0.69 2.02-2.08 2.02-3.53v-14.36c0.05-1.28-0.75-2.55-2.05-3.21zm-69.31-19.69 10-6.25 10.06 6.25v11.07l-10.31 6.25-10-6.25v-11.07h0.25zm-44.52 24.64 9.83-6.57 11.2 6.57v10.91l-11.09 6.25-9.94-6.25v-10.91zm10 65.56-10.06-6.25v-11.52l9.89-6.14 11.2 6.74v10.95l-11.03 6.22zm14.56-23.31-11.25-6.79v-12.08l11.42-6.62 11.53 7.29v10.73l-11.7 7.47zm15.5 24.47-12.36-7.47v-11l11.91-7.29 11.37 6.74v13.28l-10.92 5.74zm24.47 16.99-10.26 6.19-10.06-6.42v-10.41l10.15-6.57 10.17 6.25v10.96zm1.33-48.93-11.19 6.87-11.47-7.1v-10.56l11.36-7.17 11.31 7.11v10.85h-0.01zm3.28-16.92-11.74-7.17v-11.74l11.42-6.94 12.02 7.81v10.9l-11.7 7.14zm3.35 6.13 12.08-7.29 10.37 6.68v12.2l-10.75 6.68-11.69-7.53v-10.74h-0.01zm36.1 35.21-9.71 6.57-10.75-6.57v-11.41l10.64-6.14 9.83 6.42v11.13h-0.01zm-0.11-48.51-9.54 6.57-10.98-6.57v-10.73l10.92-6.57 9.6 6.57v10.73z" fill="url(#paint1_linear_11_212)"/>
  <defs>
    <linearGradient id="paint0_linear_11_212" x1="100.1" x2="100.1" y1="4.767" y2="195.2" gradientUnits="userSpaceOnUse">
      <stop stop-color="#F6D847" offset="0"/>
      <stop stop-color="#B58C21" offset="1"/>
    </linearGradient>
    <linearGradient id="paint1_linear_11_212" x1="100.1" x2="100.1" y1="30.26" y2="165.7" gradientUnits="userSpaceOnUse">
      <stop stop-color="#F1CB29" offset="0"/>
      <stop stop-color="#B58C21" offset="1"/>
    </linearGradient>
  </defs>
</svg>